<svg width="512" height="512" viewBox="0 0 512 512" fill="none" xmlns="http://www.w3.org/2000/svg">
<rect width="512" height="512" rx="48" fill="#FFF0F5"/>
<path d="M375 109.918C375 125.106 362.688 137.419 347.5 137.419C332.312 137.419 320 125.106 320 109.918C320 94.7307 340.84 66.1979 345.996 45C350.006 65.0521 375 94.7307 375 109.918Z" fill="#C2C2D6"/>
<path d="M375 109.918C375 125.106 362.688 137.419 347.5 137.419C332.312 137.419 320 125.106 320 109.918C320 94.7307 340.84 66.1979 345.996 45C350.006 65.0521 375 94.7307 375 109.918Z" fill="#C2C2D6"/>
<path d="M375 109.918C375 125.106 362.688 137.419 347.5 137.419C332.312 137.419 320 125.106 320 109.918C320 94.7307 340.84 66.1979 345.996 45C350.006 65.0521 375 94.7307 375 109.918Z" fill="#C2C2D6"/>
<path d="M375 109.918C375 125.106 362.688 137.419 347.5 137.419C332.312 137.419 320 125.106 320 109.918C320 94.7307 340.84 66.1979 345.996 45C350.006 65.0521 375 94.7307 375 109.918Z" fill="#C2C2D6"/>
<path d="M380 266.771C380 275.607 372.837 282.771 364 282.771C355.163 282.771 348 275.607 348 266.771C348 257.934 360.125 241.333 363.125 229C365.458 240.667 380 257.934 380 266.771Z" fill="#C2C2D6"/>
<path d="M380 266.771C380 275.607 372.837 282.771 364 282.771C355.163 282.771 348 275.607 348 266.771C348 257.934 360.125 241.333 363.125 229C365.458 240.667 380 257.934 380 266.771Z" fill="#C2C2D6"/>
<path d="M380 266.771C380 275.607 372.837 282.771 364 282.771C355.163 282.771 348 275.607 348 266.771C348 257.934 360.125 241.333 363.125 229C365.458 240.667 380 257.934 380 266.771Z" fill="#C2C2D6"/>
<path d="M380 266.771C380 275.607 372.837 282.771 364 282.771C355.163 282.771 348 275.607 348 266.771C348 257.934 360.125 241.333 363.125 229C365.458 240.667 380 257.934 380 266.771Z" fill="#C2C2D6"/>
<path d="M313 201.935C313 214.085 303.15 223.935 291 223.935C278.85 223.935 269 214.085 269 201.935C269 189.785 285.672 166.958 289.797 150C293.005 166.042 313 189.785 313 201.935Z" fill="#C2C2D6"/>
<path d="M313 201.935C313 214.085 303.15 223.935 291 223.935C278.85 223.935 269 214.085 269 201.935C269 189.785 285.672 166.958 289.797 150C293.005 166.042 313 189.785 313 201.935Z" fill="#C2C2D6"/>
<path d="M313 201.935C313 214.085 303.15 223.935 291 223.935C278.85 223.935 269 214.085 269 201.935C269 189.785 285.672 166.958 289.797 150C293.005 166.042 313 189.785 313 201.935Z" fill="#C2C2D6"/>
<path d="M313 201.935C313 214.085 303.15 223.935 291 223.935C278.85 223.935 269 214.085 269 201.935C269 189.785 285.672 166.958 289.797 150C293.005 166.042 313 189.785 313 201.935Z" fill="#C2C2D6"/>
<path d="M431.135 299.568C434.443 332.803 428.226 366.293 413.21 396.126C398.195 425.959 375.001 450.904 346.337 468.047C317.673 485.19 284.723 493.823 251.336 492.938C217.949 492.053 185.503 481.686 157.788 463.049C130.072 444.412 108.232 418.273 94.8185 387.686C81.4047 357.099 76.9708 323.327 82.0348 290.314C87.0989 257.302 101.452 226.411 123.417 201.251C145.382 176.092 174.053 157.701 206.08 148.228L256 317L431.135 299.568Z" fill="#C2C2D6"/>
<circle cx="160" cy="256" r="32" fill="#FFF0F5"/>
</svg>
