<svg width="512" height="512" viewBox="0 0 512 512" fill="none" xmlns="http://www.w3.org/2000/svg">
<rect width="512" height="512" rx="48" fill="#C2C2D6"/>
<path d="M375 94.9185C375 110.106 362.688 122.418 347.5 122.418C332.312 122.418 320 110.106 320 94.9185C320 79.7307 340.84 51.1979 345.996 30C350.006 50.0521 375 79.7307 375 94.9185Z" fill="#FFF0F5"/>
<path d="M375 94.9185C375 110.106 362.688 122.418 347.5 122.418C332.312 122.418 320 110.106 320 94.9185C320 79.7307 340.84 51.1979 345.996 30C350.006 50.0521 375 79.7307 375 94.9185Z" fill="#FFF0F5"/>
<path d="M375 94.9185C375 110.106 362.688 122.418 347.5 122.418C332.312 122.418 320 110.106 320 94.9185C320 79.7307 340.84 51.1979 345.996 30C350.006 50.0521 375 79.7307 375 94.9185Z" fill="#FFF0F5"/>
<path d="M375 94.9185C375 110.106 362.688 122.418 347.5 122.418C332.312 122.418 320 110.106 320 94.9185C320 79.7307 340.84 51.1979 345.996 30C350.006 50.0521 375 79.7307 375 94.9185Z" fill="#FFF0F5"/>
<path d="M380 251.771C380 260.607 372.837 267.771 364 267.771C355.163 267.771 348 260.607 348 251.771C348 242.934 360.125 226.333 363.125 214C365.458 225.667 380 242.934 380 251.771Z" fill="#FFF0F5"/>
<path d="M380 251.771C380 260.607 372.837 267.771 364 267.771C355.163 267.771 348 260.607 348 251.771C348 242.934 360.125 226.333 363.125 214C365.458 225.667 380 242.934 380 251.771Z" fill="#FFF0F5"/>
<path d="M380 251.771C380 260.607 372.837 267.771 364 267.771C355.163 267.771 348 260.607 348 251.771C348 242.934 360.125 226.333 363.125 214C365.458 225.667 380 242.934 380 251.771Z" fill="#FFF0F5"/>
<path d="M380 251.771C380 260.607 372.837 267.771 364 267.771C355.163 267.771 348 260.607 348 251.771C348 242.934 360.125 226.333 363.125 214C365.458 225.667 380 242.934 380 251.771Z" fill="#FFF0F5"/>
<path d="M313 186.935C313 199.085 303.15 208.935 291 208.935C278.85 208.935 269 199.085 269 186.935C269 174.785 285.672 151.958 289.797 135C293.005 151.042 313 174.785 313 186.935Z" fill="#FFF0F5"/>
<path d="M313 186.935C313 199.085 303.15 208.935 291 208.935C278.85 208.935 269 199.085 269 186.935C269 174.785 285.672 151.958 289.797 135C293.005 151.042 313 174.785 313 186.935Z" fill="#FFF0F5"/>
<path d="M313 186.935C313 199.085 303.15 208.935 291 208.935C278.85 208.935 269 199.085 269 186.935C269 174.785 285.672 151.958 289.797 135C293.005 151.042 313 174.785 313 186.935Z" fill="#FFF0F5"/>
<path d="M313 186.935C313 199.085 303.15 208.935 291 208.935C278.85 208.935 269 199.085 269 186.935C269 174.785 285.672 151.958 289.797 135C293.005 151.042 313 174.785 313 186.935Z" fill="#FFF0F5"/>
<path d="M431.135 280.568C434.443 313.803 428.226 347.293 413.21 377.126C398.195 406.959 375.001 431.904 346.337 449.047C317.673 466.19 284.723 474.823 251.336 473.938C217.949 473.053 185.503 462.686 157.788 444.049C130.073 425.412 108.232 399.273 94.8186 368.686C81.4048 338.099 76.9709 304.327 82.0349 271.314C87.099 238.302 101.452 207.411 123.417 182.251C145.382 157.092 174.053 138.701 206.08 129.228L256 298L431.135 280.568Z" fill="#FFF0F5"/>
<circle cx="160" cy="237" r="32" fill="#C2C2D6"/>
</svg>
